#!OML:ASF \\sashay\E\basketball\basketball\Project 1\Capture day 1\Session 1\Subject.ASF
:FULLY-SPECIFIED
:DEGREES
1
root -36.6245 15.838 1.23924 174.536 68.1282 163.131
lowerback 8.70003 -2.47045 -8.56789
upperback 6.46237 -3.48565 0.641824
thorax 2.49478 -1.92929 5.68667
lowerneck -17.6795 1.29371 -9.36719
upperneck -14.9123 5.66118 11.8495
head -2.18655 3.8246 5.41076
rclavicle -5.36719e-015 -3.29983e-014
rhumerus -55.4396 59.0157 -102.949
rradius 110.666
rwrist -55.3531
rhand -50.6405 51.7292
rfingers 7.12502
rthumb -23.2037 23.107
lclavicle -5.36719e-015 -3.29983e-014
lhumerus -23.5302 -73.9134 81.6074
lradius 103.859
lwrist 69.8645
lhand -26.6477 54.1891
lfingers 7.12502
lthumb -0.0798262 84.1688
rfemur -21.4752 -15.039 9.54008
rtibia 43.2379
rfoot -25.9934 -20.5952
rtoes -1.74396
lfemur -22.1268 3.1142 -17.4876
ltibia 26.9576
lfoot -8.92044 -3.42397
ltoes -15.3187
2
root -36.5727 15.8224 1.21983 173.895 67.3886 163.438
lowerback 9.72467 -2.13697 -8.80728
upperback 6.45161 -3.1357 0.58924
thorax 1.87884 -1.72528 5.8005
lowerneck -17.7246 0.771136 -9.59859
upperneck -14.593 5.01629 12.5472
head -2.01757 3.51317 5.66549
rclavicle 2.22639e-014 2.36554e-014
rhumerus -55.0152 58.6719 -102.991
rradius 112.818
rwrist -52.9572
rhand -50.2937 53.2331
rfingers 7.12502
rthumb -22.871 24.5693
lclavicle 2.22639e-014 2.36554e-014
lhumerus -23.2035 -72.5174 80.188
lradius 105.972
lwrist 68.2628
lhand -26.9738 53.5173
lfingers 7.12502
lthumb -0.39478 83.4967
rfemur -19.7918 -14.7522 9.19369
rtibia 43.0885
rfoot -26.8491 -20.8987
rtoes -0.238062
lfemur -20.7186 2.80875 -17.4517
ltibia 26.4094
lfoot -8.4884 -3.89542
ltoes -9.98512
3
root -36.5202 15.8004 1.20308 173.26 66.6911 163.712
lowerback 10.394 -1.77793 -8.90359
upperback 6.67061 -2.68716 0.382107
thorax 1.66799 -1.48237 5.63105
lowerneck -17.6755 0.0683803 -9.90517
upperneck -14.5519 4.20417 13.5335
head -1.91828 3.12895 6.02043
rclavicle 5.56597e-015 -2.48481e-014
rhumerus -53.1204 58.2475 -102.073
rradius 114.823
rwrist -50.5679
rhand -50.0333 54.7548
rfingers 7.12502
rthumb -22.621 26.0603
lclavicle 5.56597e-015 -2.48481e-014
lhumerus -20.2862 -71.3352 76.1329
lradius 107.933
lwrist 66.6489
lhand -27.2495 52.2873
lfingers 7.12502
lthumb -0.661048 82.2661
rfemur -18.1196 -14.4107 8.8922
rtibia 42.819
rfoot -27.6455 -21.2011
rtoes 1.38876
lfemur -19.4853 2.38125 -17.3687
ltibia 26.2207
lfoot -8.36667 -4.54533
ltoes -2.79153
4
root -36.4728 15.7889 1.19209 172.284 66.092 163.943
lowerback 11.5472 -1.28572 -9.18837
upperback 6.8162 -2.13119 0.32556
thorax 1.12154 -1.17584 5.72806
lowerneck -16.6316 -0.620144 -9.73255
upperneck -15.5928 3.31278 13.7282
head -2.2664 2.64638 6.01613
rclavicle -1.49089e-015 2.76311e-014
rhumerus -50.8632 57.9752 -100.606
rradius 116.588
rwrist -48.0804
rhand -49.6166 55.7524
rfingers 7.12502
rthumb -22.221 27.0097
lclavicle -1.49089e-015 2.76311e-014
lhumerus -17.0032 -70.13 72.0358
lradius 109.777
lwrist 64.9671
lhand -27.4495 51.2463
lfingers 7.12502
lthumb -0.854277 81.2243
rfemur -16.191 -14.0027 8.62558
rtibia 42.4944
rfoot -28.4634 -21.6087
rtoes 3.142
lfemur -18.0181 2.3303 -17.404
ltibia 26.1163
lfoot -8.62773 -4.93384
ltoes -4.33485
5
root -36.42 15.7936 1.17373 171.68 65.7508 164.038
lowerback 12.108 -0.727041 -9.58484
upperback 6.81306 -1.47818 0.4152
thorax 0.729494 -0.838952 6.00159
lowerneck -16.0485 -1.28774 -9.9814
upperneck -15.8674 2.44763 14.1153
head -2.32422 2.20153 6.15812
rclavicle 2.74323e-014 8.34896e-015
rhumerus -47.8458 58.0754 -98.3007
rradius 118.296
rwrist -45.0363
rhand -49.519 56.8265
rfingers 7.12502
rthumb -22.1274 28.0727
lclavicle 2.74323e-014 8.34896e-015
lhumerus -13.58 -69.549 67.9645
lradius 111.052
lwrist 61.4211
lhand -30.7663 47.6262
lfingers 7.12502
lthumb -4.05751 77.5673
rfemur -14.8672 -13.4898 8.48482
rtibia 42.1333
rfoot -29.2288 -21.9376
rtoes 4.66512
lfemur -17.1148 2.47104 -17.5552
ltibia 26.1171
lfoot -9.13705 -4.72651
ltoes -11.8864
6
root -36.3618 15.7997 1.15023 171.558 65.7475 163.997
lowerback 11.8175 -0.107869 -10.0972
upperback 6.75933 -0.693341 0.585427
thorax 0.715115 -0.46671 6.38701
lowerneck -17.0564 -2.22773 -12.1673
upperneck -14.0886 1.53389 16.5518
head -1.48956 1.87397 7.32003
rclavicle 3.35946e-014 -8.34896e-015
rhumerus -42.594 58.0966 -93.8199
rradius 119.876
rwrist -43.9406
rhand -48.2574 57.4415
rfingers 7.12502
rthumb -20.9157 28.5491
lclavicle 3.35946e-014 -8.34896e-015
lhumerus -8.53418 -68.6055 62.4836
lradius 112.02
lwrist 56.8532
lhand -36.7021 40.8515
lfingers 7.12502
lthumb -9.78727 70.6041
rfemur -14.3298 -12.919 8.49158
rtibia 41.7804
rfoot -29.8831 -22.1074
rtoes 5.74596
lfemur -16.8143 2.70995 -17.6636
ltibia 26.2029
lfoot -9.5726 -4.46453
ltoes -16.2596
7
root -36.3029 15.7981 1.13033 171.698 65.6845 164.163
lowerback 11.3159 0.38955 -10.2178
upperback 6.76062 0.000984108 0.417825
thorax 0.861902 -0.129455 6.19906
lowerneck -15.7923 -2.94145 -12.3318
upperneck -15.0647 0.660618 17.4315
head -1.8081 1.39333 7.61089
rclavicle -2.98177e-015 -4.13472e-014
rhumerus -35.8865 57.6533 -88.7006
rradius 121.09
rwrist -42.521
rhand -49.1411 57.7254
rfingers 7.12502
rthumb -21.7645 28.9291
lclavicle -2.98177e-015 -4.13472e-014
lhumerus -1.18994 -64.4587 54.931
lradius 113.393
lwrist 59.605
lhand -32.54 41.2596
lfingers 7.12502
lthumb -5.77011 71.161
rfemur -13.8831 -12.2689 8.64489
rtibia 41.4881
rfoot -30.754 -22.3991
rtoes 6.82321
lfemur -16.5852 2.73193 -17.5993
ltibia 26.2715
lfoot -9.83511 -4.42576
ltoes -17.3696
8
root -36.2503 15.7941 1.11112 171.888 65.6038 164.27
lowerback 10.7318 0.875145 -10.4375
upperback 6.7176 0.676058 0.327173
thorax 1.01365 0.192538 6.15784
lowerneck -14.5156 -3.57206 -12.3293
upperneck -15.983 -0.158223 18.0489
head -2.12336 0.921107 7.79634
rclavicle -2.44505e-014 1.82882e-014
rhumerus -28.8707 56.7188 -83.2081
rradius 121.494
rwrist -40.2209
rhand -46.5231 59.7458
rfingers 7.12502
rthumb -19.2488 30.6784
lclavicle -2.44505e-014 1.82882e-014
lhumerus 5.23527 -59.7634 49.2209
lradius 113.727
lwrist 60.6151
lhand -28.459 41.7353
lfingers 7.12502
lthumb -1.82921 71.7072
rfemur -13.5924 -11.5486 8.79304
rtibia 41.2678
rfoot -31.6063 -22.7323
rtoes 8.18091
lfemur -16.3836 2.5359 -17.5389
ltibia 26.1155
lfoot -9.99139 -4.35926
ltoes -18.1185
9
root -36.2048 15.7902 1.092 172.143 65.5599 164.296
lowerback 10.0919 1.31961 -10.4844
upperback 6.56654 1.30723 0.0856457
thorax 1.08843 0.505618 5.86951
lowerneck -13.9459 -4.33281 -13.5283
upperneck -15.6854 -0.999679 20.1441
head -1.89274 0.510584 8.69033
rclavicle -1.09332e-014 2.62396e-014
rhumerus -20.8628 55.7834 -77.5217
rradius 121.269
rwrist -38.3182
rhand -46.012 60.3035
rfingers 7.12502
rthumb -18.7572 31.1879
lclavicle -1.09332e-014 2.62396e-014
lhumerus 11.0926 -54.7555 44.8023
lradius 112.937
lwrist 59.8974
lhand -26.615 42.7857
lfingers 7.12502
lthumb -0.0482766 72.7655
rfemur -13.5278 -10.9391 8.9055
rtibia 41.127
rfoot -32.2646 -22.9046
rtoes 9.72443
lfemur -16.3123 2.35314 -17.5173
ltibia 25.8942
lfoot -10.2948 -4.22887
ltoes -19.4655
10
root -36.1882 15.7607 1.03094 167.366 66.8938 161.913
lowerback 12.0431 2.424 -10.5772
upperback 7.05743 2.63206 -0.636361
thorax 0.355312 1.23638 4.96184
lowerneck -14.1866 -5.13926 -15.0711
upperneck -14.3444 -1.93894 22.7926
head -1.14894 0.115036 9.82624
rclavicle -2.90226e-014 2.08724e-014
rhumerus -12.9146 54.4599 -72.2898
rradius 120.818
rwrist -37.6272
rhand -45.9615 62.2107
rfingers 7.12502
rthumb -18.7087 33.0904
lclavicle -2.90226e-014 2.08724e-014
lhumerus 16.905 -51.1939 40.8768
lradius 110.968
lwrist 55.1605
lhand -23.9737 42.5389
lfingers 7.12502
lthumb 2.50272 72.5039
rfemur -10.8164 -10.2074 7.25396
rtibia 41.0638
rfoot -31.7938 -21.6773
rtoes 8.52365
lfemur -12.7197 2.72983 -18.2191
ltibia 25.5631
lfoot -11.3465 -3.19885
ltoes -21.205
11
root -36.1993 15.7343 0.995928 165.427 67.3266 161.064
lowerback 13.2238 3.04688 -10.2825
upperback 7.06056 3.3623 -1.12759
thorax -0.354397 1.66542 4.1259
lowerneck -14.2002 -5.79426 -15.88
upperneck -13.3187 -2.84655 24.5853
head -0.557575 -0.300552 10.5405
rclavicle 2.25621e-014 -3.63776e-014
rhumerus -4.53521 52.8124 -67.0039
rradius 119.033
rwrist -35.202
rhand -46.3551 62.822
rfingers 7.12502
rthumb -19.0872 33.7386
lclavicle 2.25621e-014 -3.63776e-014
lhumerus 20.5043 -47.7771 38.6348
lradius 109.609
lwrist 50.5776
lhand -24.4728 40.4465
lfingers 7.12502
lthumb 2.0207 70.4167
rfemur -9.6349 -9.93013 6.58835
rtibia 41.0863
rfoot -31.9234 -21.062
rtoes 8.1024
lfemur -11.1317 2.53793 -18.4345
ltibia 25.3416
lfoot -11.6777 -2.79396
ltoes -19.2566
12
root -36.1777 15.7019 0.975867 163.835 67.7466 160.352
lowerback 13.7913 3.63187 -10.2824
upperback 7.11299 4.08408 -1.45211
thorax -0.680247 2.05454 3.64099
lowerneck -13.7788 -6.34099 -16.2795
upperneck -12.6086 -3.75072 25.6401
head -0.159261 -0.766872 10.9167
rclavicle -4.40308e-014 2.48481e-014
rhumerus 3.84667 49.2086 -62.2223
rradius 115.651
rwrist -29.3796
rhand -46.3668 65.6479
rfingers 7.12502
rthumb -19.0984 36.5656
lclavicle -4.40308e-014 2.48481e-014
lhumerus 23.9062 -42.9453 38.0473
lradius 106.704
lwrist 49.3064
lhand -23.7164 37.0307
lfingers 7.12502
lthumb 2.75129 66.9927
rfemur -8.68892 -10.0597 6.06956
rtibia 41.1589
rfoot -32.1562 -20.3461
rtoes 7.85205
lfemur -9.74652 2.52584 -18.4833
ltibia 25.2218
lfoot -9.90635 -0.103865
ltoes -11.6161
13
root -36.1844 15.6903 0.975146 163.722 67.3532 160.477
lowerback 14.388 3.83526 -10.0802
upperback 6.85166 4.27367 -1.72319
thorax -1.27432 2.18973 3.16537
lowerneck -13.1847 -6.80696 -16.7755
upperneck -12.0657 -4.54184 26.6033
head 0.147673 -1.18699 11.2919
rclavicle 8.30423e-014 -8.79622e-014
rhumerus 11.2919 47.1105 -58.4186
rradius 112.865
rwrist -28.6489
rhand -48.7663 63.3957
rfingers 7.12502
rthumb -21.4046 34.5581
lclavicle 8.30423e-014 -8.79622e-014
lhumerus 27.0156 -38.0668 38.6647
lradius 102.546
lwrist 47.4863
lhand -22.6114 33.5298
lfingers 7.12502
lthumb 3.81833 63.4754
rfemur -8.3499 -10.5008 5.88302
rtibia 41.269
rfoot -32.5228 -20.0946
rtoes 8.68522
lfemur -9.6195 2.29194 -18.5629
ltibia 25.3659
lfoot -11.2908 -2.4999
ltoes -10.7209
